<?xml version="1.0" standalone="no"?>
<!DOCTYPE svg PUBLIC "-//W3C//DTD SVG 20010904//EN"
 "http://www.w3.org/TR/2001/REC-SVG-20010904/DTD/svg10.dtd">
<svg version="1.0" xmlns="http://www.w3.org/2000/svg"
 width="260.000000pt" height="260.000000pt" viewBox="0 0 260.000000 260.000000"
 preserveAspectRatio="xMidYMid meet">
<metadata>
Created by potrace 1.14, written by Peter Selinger 2001-2017
</metadata>
<g transform="translate(0.000000,260.000000) scale(0.100000,-0.100000)"
fill="#000000" stroke="none">
<path d="M1125 2572 c-139 -23 -197 -38 -295 -78 -227 -92 -456 -273 -587
-465 -110 -161 -175 -310 -213 -494 -25 -117 -22 -386 5 -461 3 -11 45 -20
145 -29 56 -5 130 -14 150 -19 8 -1 35 -6 60 -10 25 -4 52 -9 60 -10 37 -7
116 -20 125 -21 15 -2 84 -15 136 -26 26 -6 53 -12 60 -13 70 -14 89 -19 89
-26 0 -6 -35 -18 -72 -24 -3 -1 -9 -3 -11 -6 -6 -6 -229 -2 -337 5 -41 3 -100
7 -130 9 -103 7 -230 9 -235 4 -8 -8 72 -191 113 -260 27 -46 37 -56 51 -49 9
5 30 11 46 14 17 3 37 8 45 11 8 3 26 7 40 10 14 3 88 23 165 46 77 23 145 43
150 44 6 2 17 6 25 9 8 3 37 13 65 22 80 26 160 73 179 105 9 17 14 30 10 30
-5 0 -3 5 3 11 8 8 17 6 32 -7 32 -28 29 -86 -7 -122 -44 -45 -199 -138 -302
-181 -14 -6 -32 -15 -40 -21 -21 -13 -250 -120 -258 -120 -4 0 -13 -9 -20 -21
-12 -18 -10 -24 15 -48 57 -56 150 -131 162 -131 7 0 29 16 49 35 20 19 47 43
58 52 12 10 43 36 70 58 199 164 335 296 368 359 48 91 9 172 -112 233 -40 20
-201 76 -254 89 -41 9 -58 13 -153 32 -55 11 -131 25 -170 31 -38 6 -86 13
-105 17 -19 3 -59 7 -89 8 -29 2 -56 8 -60 15 -4 6 -6 73 -5 149 2 158 22 259
78 391 31 73 109 217 125 231 3 3 20 23 36 45 63 85 235 239 326 294 72 43
259 126 259 115 0 -3 10 0 21 7 12 6 31 13 43 14 11 2 60 10 108 17 90 14 254
16 322 3 22 -4 71 -15 110 -26 39 -10 79 -21 88 -23 9 -3 38 -14 63 -25 25
-11 45 -18 45 -15 0 2 18 -7 40 -21 22 -14 42 -25 46 -25 21 0 175 -121 260
-205 106 -104 192 -225 243 -338 32 -70 68 -177 75 -222 3 -16 10 -54 16 -84
15 -80 13 -291 -2 -292 -59 -3 -112 -9 -163 -18 -33 -5 -78 -13 -100 -16 -171
-25 -482 -102 -512 -127 -7 -6 -13 -7 -13 -3 0 4 -26 -8 -57 -25 -124 -69
-152 -145 -89 -240 31 -47 233 -245 307 -300 31 -24 157 -130 208 -177 l25
-22 55 47 c81 67 141 124 141 132 0 5 -78 45 -215 110 -218 102 -357 175 -363
191 -2 5 -10 9 -17 9 -7 0 -29 19 -50 41 -31 34 -36 46 -31 71 6 31 27 58 45
58 6 0 11 -5 11 -11 0 -25 43 -68 94 -93 57 -28 286 -108 286 -100 0 2 15 -2
33 -9 17 -7 59 -19 92 -26 33 -7 71 -17 85 -22 56 -19 153 -40 165 -35 19 7
145 273 145 305 0 5 -8 7 -17 5 -10 -2 -74 -6 -143 -9 -69 -3 -156 -8 -195
-10 -221 -15 -425 -2 -425 25 0 10 2 11 140 39 89 19 125 25 192 36 15 2 53 8
85 14 32 6 78 13 103 15 25 3 59 8 75 12 42 8 80 12 156 13 l67 1 12 81 c12
88 16 266 7 314 -4 17 -9 50 -12 74 -12 84 -56 217 -110 327 -246 506 -812
813 -1340 726z"/>
<path d="M1250 2137 c-123 -118 -153 -200 -111 -293 52 -115 206 -139 289 -45
57 64 67 135 29 206 -35 64 -129 165 -154 165 -10 0 -34 -15 -53 -33z m84
-172 c21 -31 20 -69 -1 -86 -30 -26 -82 0 -83 42 0 21 38 69 55 69 7 0 20 -11
29 -25z"/>
<path d="M661 1796 c-7 -8 -14 -24 -16 -37 -5 -26 52 -203 92 -286 57 -116
177 -216 276 -229 40 -6 49 -3 71 19 39 39 24 65 -62 108 -75 38 -107 64 -145
120 -26 39 -72 147 -65 154 7 8 85 -22 153 -57 78 -40 184 -151 227 -237 l33
-66 2 -200 c3 -178 1 -208 -18 -270 -38 -128 -82 -214 -186 -365 -113 -163
-138 -197 -184 -257 -27 -35 -49 -69 -49 -77 0 -12 64 -41 113 -50 7 -2 32 -8
57 -15 25 -7 56 -15 70 -18 14 -2 41 -8 60 -13 68 -19 77 -15 85 38 8 51 11
71 19 117 2 17 7 48 10 70 4 22 11 67 16 100 12 72 18 116 26 170 3 22 8 47
11 55 3 8 7 26 9 40 3 30 12 77 18 105 2 11 5 29 5 39 1 11 3 17 6 14 6 -6 31
-100 39 -148 6 -38 13 -76 22 -130 3 -19 8 -51 11 -70 8 -68 11 -85 13 -85 1
0 3 -11 5 -25 2 -14 11 -68 20 -120 9 -52 18 -111 20 -130 1 -19 3 -39 4 -44
1 -7 95 -1 110 8 3 2 22 7 41 10 61 9 230 67 230 78 0 5 -59 93 -130 194 -207
292 -268 403 -301 549 -17 79 -14 380 5 437 35 103 118 211 209 271 58 39 184
93 194 83 8 -7 -24 -92 -52 -136 -44 -69 -131 -140 -173 -140 -5 0 -21 -9 -36
-21 -51 -40 -22 -109 48 -109 47 0 144 52 198 106 56 56 128 194 163 313 31
104 31 117 1 136 -22 14 -32 14 -117 -5 -176 -38 -271 -85 -376 -184 -65 -61
-73 -66 -73 -44 0 30 -26 67 -54 77 -41 16 -76 -16 -82 -71 -1 -10 -2 -21 -3
-24 0 -3 -24 18 -53 46 -107 106 -193 151 -385 199 -96 25 -117 26 -132 7z"/>
</g>
</svg>
